<mxfile host="app.diagrams.net" modified="2022-09-13T15:57:15.266Z" agent="5.0 (X11; Linux x86_64) AppleWebKit/537.36 (KHTML, like Gecko) Chrome/102.0.0.0 Safari/537.36" etag="iOw5oOVOTxb-mdPeRIbG" version="20.3.0" type="github">
  <diagram id="C5RBs43oDa-KdzZeNtuy" name="Page-1">
    <mxGraphModel dx="2175" dy="1942" grid="1" gridSize="10" guides="1" tooltips="1" connect="1" arrows="1" fold="1" page="1" pageScale="1" pageWidth="827" pageHeight="1169" math="0" shadow="0">
      <root>
        <mxCell id="WIyWlLk6GJQsqaUBKTNV-0" />
        <mxCell id="WIyWlLk6GJQsqaUBKTNV-1" parent="WIyWlLk6GJQsqaUBKTNV-0" />
        <mxCell id="I_AoUHruzw9LnVcy2JcL-42" style="edgeStyle=orthogonalEdgeStyle;rounded=0;orthogonalLoop=1;jettySize=auto;html=1;endArrow=none;endFill=0;endSize=14;startArrow=diamond;startFill=0;targetPerimeterSpacing=0;sourcePerimeterSpacing=0;startSize=17;" edge="1" parent="WIyWlLk6GJQsqaUBKTNV-1" source="I_AoUHruzw9LnVcy2JcL-0" target="I_AoUHruzw9LnVcy2JcL-4">
          <mxGeometry relative="1" as="geometry" />
        </mxCell>
        <mxCell id="I_AoUHruzw9LnVcy2JcL-0" value="Animal" style="swimlane;fontStyle=1;align=center;verticalAlign=top;childLayout=stackLayout;horizontal=1;startSize=26;horizontalStack=0;resizeParent=1;resizeParentMax=0;resizeLast=0;collapsible=1;marginBottom=0;" vertex="1" parent="WIyWlLk6GJQsqaUBKTNV-1">
          <mxGeometry x="300" y="-100" width="160" height="138" as="geometry" />
        </mxCell>
        <mxCell id="I_AoUHruzw9LnVcy2JcL-1" value="- weight: int" style="text;strokeColor=none;fillColor=none;align=left;verticalAlign=top;spacingLeft=4;spacingRight=4;overflow=hidden;rotatable=0;points=[[0,0.5],[1,0.5]];portConstraint=eastwest;" vertex="1" parent="I_AoUHruzw9LnVcy2JcL-0">
          <mxGeometry y="26" width="160" height="26" as="geometry" />
        </mxCell>
        <mxCell id="I_AoUHruzw9LnVcy2JcL-9" value="- id: int" style="text;strokeColor=none;fillColor=none;align=left;verticalAlign=top;spacingLeft=4;spacingRight=4;overflow=hidden;rotatable=0;points=[[0,0.5],[1,0.5]];portConstraint=eastwest;" vertex="1" parent="I_AoUHruzw9LnVcy2JcL-0">
          <mxGeometry y="52" width="160" height="26" as="geometry" />
        </mxCell>
        <mxCell id="I_AoUHruzw9LnVcy2JcL-8" value="# weight: int" style="text;strokeColor=none;fillColor=none;align=left;verticalAlign=top;spacingLeft=4;spacingRight=4;overflow=hidden;rotatable=0;points=[[0,0.5],[1,0.5]];portConstraint=eastwest;" vertex="1" parent="I_AoUHruzw9LnVcy2JcL-0">
          <mxGeometry y="78" width="160" height="26" as="geometry" />
        </mxCell>
        <mxCell id="I_AoUHruzw9LnVcy2JcL-2" value="" style="line;strokeWidth=1;fillColor=none;align=left;verticalAlign=middle;spacingTop=-1;spacingLeft=3;spacingRight=3;rotatable=0;labelPosition=right;points=[];portConstraint=eastwest;strokeColor=inherit;" vertex="1" parent="I_AoUHruzw9LnVcy2JcL-0">
          <mxGeometry y="104" width="160" height="8" as="geometry" />
        </mxCell>
        <mxCell id="I_AoUHruzw9LnVcy2JcL-3" value="+ makeNoise(): String" style="text;strokeColor=none;fillColor=none;align=left;verticalAlign=top;spacingLeft=4;spacingRight=4;overflow=hidden;rotatable=0;points=[[0,0.5],[1,0.5]];portConstraint=eastwest;" vertex="1" parent="I_AoUHruzw9LnVcy2JcL-0">
          <mxGeometry y="112" width="160" height="26" as="geometry" />
        </mxCell>
        <mxCell id="I_AoUHruzw9LnVcy2JcL-4" value="AnimalFarm" style="swimlane;fontStyle=0;childLayout=stackLayout;horizontal=1;startSize=26;fillColor=none;horizontalStack=0;resizeParent=1;resizeParentMax=0;resizeLast=0;collapsible=1;marginBottom=0;" vertex="1" parent="WIyWlLk6GJQsqaUBKTNV-1">
          <mxGeometry x="-150" y="200" width="240" height="78" as="geometry" />
        </mxCell>
        <mxCell id="I_AoUHruzw9LnVcy2JcL-5" value="- animalList: List&lt;Animal&gt;" style="text;strokeColor=none;fillColor=none;align=left;verticalAlign=top;spacingLeft=4;spacingRight=4;overflow=hidden;rotatable=0;points=[[0,0.5],[1,0.5]];portConstraint=eastwest;" vertex="1" parent="I_AoUHruzw9LnVcy2JcL-4">
          <mxGeometry y="26" width="240" height="26" as="geometry" />
        </mxCell>
        <mxCell id="I_AoUHruzw9LnVcy2JcL-7" value="+ field: type" style="text;strokeColor=none;fillColor=none;align=left;verticalAlign=top;spacingLeft=4;spacingRight=4;overflow=hidden;rotatable=0;points=[[0,0.5],[1,0.5]];portConstraint=eastwest;" vertex="1" parent="I_AoUHruzw9LnVcy2JcL-4">
          <mxGeometry y="52" width="240" height="26" as="geometry" />
        </mxCell>
        <mxCell id="I_AoUHruzw9LnVcy2JcL-36" style="edgeStyle=orthogonalEdgeStyle;rounded=0;orthogonalLoop=1;jettySize=auto;html=1;endArrow=block;endFill=0;endSize=14;" edge="1" parent="WIyWlLk6GJQsqaUBKTNV-1" source="I_AoUHruzw9LnVcy2JcL-10" target="I_AoUHruzw9LnVcy2JcL-30">
          <mxGeometry relative="1" as="geometry">
            <Array as="points">
              <mxPoint x="180" y="310" />
              <mxPoint x="640" y="310" />
            </Array>
          </mxGeometry>
        </mxCell>
        <mxCell id="I_AoUHruzw9LnVcy2JcL-10" value="Dog" style="swimlane;fontStyle=1;align=center;verticalAlign=top;childLayout=stackLayout;horizontal=1;startSize=26;horizontalStack=0;resizeParent=1;resizeParentMax=0;resizeLast=0;collapsible=1;marginBottom=0;" vertex="1" parent="WIyWlLk6GJQsqaUBKTNV-1">
          <mxGeometry x="100" y="410" width="160" height="86" as="geometry" />
        </mxCell>
        <mxCell id="I_AoUHruzw9LnVcy2JcL-11" value="- holes: int" style="text;strokeColor=none;fillColor=none;align=left;verticalAlign=top;spacingLeft=4;spacingRight=4;overflow=hidden;rotatable=0;points=[[0,0.5],[1,0.5]];portConstraint=eastwest;" vertex="1" parent="I_AoUHruzw9LnVcy2JcL-10">
          <mxGeometry y="26" width="160" height="26" as="geometry" />
        </mxCell>
        <mxCell id="I_AoUHruzw9LnVcy2JcL-12" value="" style="line;strokeWidth=1;fillColor=none;align=left;verticalAlign=middle;spacingTop=-1;spacingLeft=3;spacingRight=3;rotatable=0;labelPosition=right;points=[];portConstraint=eastwest;strokeColor=inherit;" vertex="1" parent="I_AoUHruzw9LnVcy2JcL-10">
          <mxGeometry y="52" width="160" height="8" as="geometry" />
        </mxCell>
        <mxCell id="I_AoUHruzw9LnVcy2JcL-13" value="+ digHoles(type): void" style="text;strokeColor=none;fillColor=none;align=left;verticalAlign=top;spacingLeft=4;spacingRight=4;overflow=hidden;rotatable=0;points=[[0,0.5],[1,0.5]];portConstraint=eastwest;" vertex="1" parent="I_AoUHruzw9LnVcy2JcL-10">
          <mxGeometry y="60" width="160" height="26" as="geometry" />
        </mxCell>
        <mxCell id="I_AoUHruzw9LnVcy2JcL-37" style="edgeStyle=orthogonalEdgeStyle;rounded=0;orthogonalLoop=1;jettySize=auto;html=1;endArrow=block;endFill=0;endSize=14;" edge="1" parent="WIyWlLk6GJQsqaUBKTNV-1" source="I_AoUHruzw9LnVcy2JcL-14" target="I_AoUHruzw9LnVcy2JcL-30">
          <mxGeometry relative="1" as="geometry">
            <Array as="points">
              <mxPoint x="380" y="310" />
              <mxPoint x="640" y="310" />
            </Array>
          </mxGeometry>
        </mxCell>
        <mxCell id="I_AoUHruzw9LnVcy2JcL-14" value="Cat" style="swimlane;fontStyle=1;align=center;verticalAlign=top;childLayout=stackLayout;horizontal=1;startSize=26;horizontalStack=0;resizeParent=1;resizeParentMax=0;resizeLast=0;collapsible=1;marginBottom=0;" vertex="1" parent="WIyWlLk6GJQsqaUBKTNV-1">
          <mxGeometry x="300" y="410" width="160" height="86" as="geometry" />
        </mxCell>
        <mxCell id="I_AoUHruzw9LnVcy2JcL-15" value="+ field: type" style="text;strokeColor=none;fillColor=none;align=left;verticalAlign=top;spacingLeft=4;spacingRight=4;overflow=hidden;rotatable=0;points=[[0,0.5],[1,0.5]];portConstraint=eastwest;" vertex="1" parent="I_AoUHruzw9LnVcy2JcL-14">
          <mxGeometry y="26" width="160" height="26" as="geometry" />
        </mxCell>
        <mxCell id="I_AoUHruzw9LnVcy2JcL-16" value="" style="line;strokeWidth=1;fillColor=none;align=left;verticalAlign=middle;spacingTop=-1;spacingLeft=3;spacingRight=3;rotatable=0;labelPosition=right;points=[];portConstraint=eastwest;strokeColor=inherit;" vertex="1" parent="I_AoUHruzw9LnVcy2JcL-14">
          <mxGeometry y="52" width="160" height="8" as="geometry" />
        </mxCell>
        <mxCell id="I_AoUHruzw9LnVcy2JcL-17" value="+ method(type): type" style="text;strokeColor=none;fillColor=none;align=left;verticalAlign=top;spacingLeft=4;spacingRight=4;overflow=hidden;rotatable=0;points=[[0,0.5],[1,0.5]];portConstraint=eastwest;" vertex="1" parent="I_AoUHruzw9LnVcy2JcL-14">
          <mxGeometry y="60" width="160" height="26" as="geometry" />
        </mxCell>
        <mxCell id="I_AoUHruzw9LnVcy2JcL-38" style="edgeStyle=orthogonalEdgeStyle;rounded=0;orthogonalLoop=1;jettySize=auto;html=1;endArrow=block;endFill=0;endSize=14;" edge="1" parent="WIyWlLk6GJQsqaUBKTNV-1" source="I_AoUHruzw9LnVcy2JcL-18" target="I_AoUHruzw9LnVcy2JcL-30">
          <mxGeometry relative="1" as="geometry">
            <Array as="points">
              <mxPoint x="770" y="350" />
              <mxPoint x="380" y="350" />
            </Array>
          </mxGeometry>
        </mxCell>
        <mxCell id="I_AoUHruzw9LnVcy2JcL-18" value="Cow" style="swimlane;fontStyle=1;align=center;verticalAlign=top;childLayout=stackLayout;horizontal=1;startSize=26;horizontalStack=0;resizeParent=1;resizeParentMax=0;resizeLast=0;collapsible=1;marginBottom=0;" vertex="1" parent="WIyWlLk6GJQsqaUBKTNV-1">
          <mxGeometry x="690" y="400" width="160" height="86" as="geometry" />
        </mxCell>
        <mxCell id="I_AoUHruzw9LnVcy2JcL-19" value="+ field: type" style="text;strokeColor=none;fillColor=none;align=left;verticalAlign=top;spacingLeft=4;spacingRight=4;overflow=hidden;rotatable=0;points=[[0,0.5],[1,0.5]];portConstraint=eastwest;" vertex="1" parent="I_AoUHruzw9LnVcy2JcL-18">
          <mxGeometry y="26" width="160" height="26" as="geometry" />
        </mxCell>
        <mxCell id="I_AoUHruzw9LnVcy2JcL-20" value="" style="line;strokeWidth=1;fillColor=none;align=left;verticalAlign=middle;spacingTop=-1;spacingLeft=3;spacingRight=3;rotatable=0;labelPosition=right;points=[];portConstraint=eastwest;strokeColor=inherit;" vertex="1" parent="I_AoUHruzw9LnVcy2JcL-18">
          <mxGeometry y="52" width="160" height="8" as="geometry" />
        </mxCell>
        <mxCell id="I_AoUHruzw9LnVcy2JcL-21" value="+ method(type): type" style="text;strokeColor=none;fillColor=none;align=left;verticalAlign=top;spacingLeft=4;spacingRight=4;overflow=hidden;rotatable=0;points=[[0,0.5],[1,0.5]];portConstraint=eastwest;" vertex="1" parent="I_AoUHruzw9LnVcy2JcL-18">
          <mxGeometry y="60" width="160" height="26" as="geometry" />
        </mxCell>
        <mxCell id="I_AoUHruzw9LnVcy2JcL-39" style="edgeStyle=orthogonalEdgeStyle;rounded=0;orthogonalLoop=1;jettySize=auto;html=1;endArrow=block;endFill=0;endSize=14;" edge="1" parent="WIyWlLk6GJQsqaUBKTNV-1" source="I_AoUHruzw9LnVcy2JcL-22" target="I_AoUHruzw9LnVcy2JcL-0">
          <mxGeometry relative="1" as="geometry">
            <Array as="points">
              <mxPoint x="570" y="133" />
              <mxPoint x="570" y="130" />
            </Array>
          </mxGeometry>
        </mxCell>
        <mxCell id="I_AoUHruzw9LnVcy2JcL-22" value="Goose" style="swimlane;fontStyle=1;align=center;verticalAlign=top;childLayout=stackLayout;horizontal=1;startSize=26;horizontalStack=0;resizeParent=1;resizeParentMax=0;resizeLast=0;collapsible=1;marginBottom=0;" vertex="1" parent="WIyWlLk6GJQsqaUBKTNV-1">
          <mxGeometry x="760" y="90" width="160" height="86" as="geometry" />
        </mxCell>
        <mxCell id="I_AoUHruzw9LnVcy2JcL-23" value="- eggs: int" style="text;strokeColor=none;fillColor=none;align=left;verticalAlign=top;spacingLeft=4;spacingRight=4;overflow=hidden;rotatable=0;points=[[0,0.5],[1,0.5]];portConstraint=eastwest;" vertex="1" parent="I_AoUHruzw9LnVcy2JcL-22">
          <mxGeometry y="26" width="160" height="26" as="geometry" />
        </mxCell>
        <mxCell id="I_AoUHruzw9LnVcy2JcL-24" value="" style="line;strokeWidth=1;fillColor=none;align=left;verticalAlign=middle;spacingTop=-1;spacingLeft=3;spacingRight=3;rotatable=0;labelPosition=right;points=[];portConstraint=eastwest;strokeColor=inherit;" vertex="1" parent="I_AoUHruzw9LnVcy2JcL-22">
          <mxGeometry y="52" width="160" height="8" as="geometry" />
        </mxCell>
        <mxCell id="I_AoUHruzw9LnVcy2JcL-25" value="+ layEgg(type): void" style="text;strokeColor=none;fillColor=none;align=left;verticalAlign=top;spacingLeft=4;spacingRight=4;overflow=hidden;rotatable=0;points=[[0,0.5],[1,0.5]];portConstraint=eastwest;" vertex="1" parent="I_AoUHruzw9LnVcy2JcL-22">
          <mxGeometry y="60" width="160" height="26" as="geometry" />
        </mxCell>
        <mxCell id="I_AoUHruzw9LnVcy2JcL-41" style="edgeStyle=orthogonalEdgeStyle;rounded=0;orthogonalLoop=1;jettySize=auto;html=1;endArrow=none;endFill=0;endSize=14;" edge="1" parent="WIyWlLk6GJQsqaUBKTNV-1" source="I_AoUHruzw9LnVcy2JcL-26" target="I_AoUHruzw9LnVcy2JcL-10">
          <mxGeometry relative="1" as="geometry" />
        </mxCell>
        <mxCell id="I_AoUHruzw9LnVcy2JcL-26" value="DogBreed" style="swimlane;fontStyle=0;childLayout=stackLayout;horizontal=1;startSize=26;fillColor=none;horizontalStack=0;resizeParent=1;resizeParentMax=0;resizeLast=0;collapsible=1;marginBottom=0;" vertex="1" parent="WIyWlLk6GJQsqaUBKTNV-1">
          <mxGeometry x="-120" y="496" width="140" height="104" as="geometry" />
        </mxCell>
        <mxCell id="I_AoUHruzw9LnVcy2JcL-27" value="SHEPHERD" style="text;strokeColor=none;fillColor=none;align=left;verticalAlign=top;spacingLeft=4;spacingRight=4;overflow=hidden;rotatable=0;points=[[0,0.5],[1,0.5]];portConstraint=eastwest;" vertex="1" parent="I_AoUHruzw9LnVcy2JcL-26">
          <mxGeometry y="26" width="140" height="26" as="geometry" />
        </mxCell>
        <mxCell id="I_AoUHruzw9LnVcy2JcL-28" value="RETRIEVER" style="text;strokeColor=none;fillColor=none;align=left;verticalAlign=top;spacingLeft=4;spacingRight=4;overflow=hidden;rotatable=0;points=[[0,0.5],[1,0.5]];portConstraint=eastwest;" vertex="1" parent="I_AoUHruzw9LnVcy2JcL-26">
          <mxGeometry y="52" width="140" height="26" as="geometry" />
        </mxCell>
        <mxCell id="I_AoUHruzw9LnVcy2JcL-29" value="HUSKY" style="text;strokeColor=none;fillColor=none;align=left;verticalAlign=top;spacingLeft=4;spacingRight=4;overflow=hidden;rotatable=0;points=[[0,0.5],[1,0.5]];portConstraint=eastwest;" vertex="1" parent="I_AoUHruzw9LnVcy2JcL-26">
          <mxGeometry y="78" width="140" height="26" as="geometry" />
        </mxCell>
        <mxCell id="I_AoUHruzw9LnVcy2JcL-40" style="edgeStyle=orthogonalEdgeStyle;rounded=0;orthogonalLoop=1;jettySize=auto;html=1;endArrow=block;endFill=0;endSize=14;" edge="1" parent="WIyWlLk6GJQsqaUBKTNV-1" source="I_AoUHruzw9LnVcy2JcL-30" target="I_AoUHruzw9LnVcy2JcL-0">
          <mxGeometry relative="1" as="geometry" />
        </mxCell>
        <mxCell id="I_AoUHruzw9LnVcy2JcL-30" value="Mammal" style="swimlane;fontStyle=1;align=center;verticalAlign=top;childLayout=stackLayout;horizontal=1;startSize=26;horizontalStack=0;resizeParent=1;resizeParentMax=0;resizeLast=0;collapsible=1;marginBottom=0;" vertex="1" parent="WIyWlLk6GJQsqaUBKTNV-1">
          <mxGeometry x="300" y="230" width="160" height="60" as="geometry" />
        </mxCell>
        <mxCell id="I_AoUHruzw9LnVcy2JcL-32" value="" style="line;strokeWidth=1;fillColor=none;align=left;verticalAlign=middle;spacingTop=-1;spacingLeft=3;spacingRight=3;rotatable=0;labelPosition=right;points=[];portConstraint=eastwest;strokeColor=inherit;" vertex="1" parent="I_AoUHruzw9LnVcy2JcL-30">
          <mxGeometry y="26" width="160" height="8" as="geometry" />
        </mxCell>
        <mxCell id="I_AoUHruzw9LnVcy2JcL-33" value="+ giveBirth(): int" style="text;strokeColor=none;fillColor=none;align=left;verticalAlign=top;spacingLeft=4;spacingRight=4;overflow=hidden;rotatable=0;points=[[0,0.5],[1,0.5]];portConstraint=eastwest;" vertex="1" parent="I_AoUHruzw9LnVcy2JcL-30">
          <mxGeometry y="34" width="160" height="26" as="geometry" />
        </mxCell>
      </root>
    </mxGraphModel>
  </diagram>
</mxfile>
